<svg width="50" height="50" viewBox="0 0 50 50" fill="none" xmlns="http://www.w3.org/2000/svg">
<rect width="50" height="50" rx="25" fill="#EDF5FF"/>
<path d="M25 15.25C22.1163 15.25 19.75 17.6163 19.75 20.5V22.6562C19.038 23.3523 18.4722 24.1835 18.0859 25.1011C17.6995 26.0188 17.5003 27.0043 17.5 28C17.5 32.1325 20.8675 35.5 25 35.5C29.1325 35.5 32.5 32.1325 32.5 28C32.4997 27.0043 32.3005 26.0188 31.9141 25.1011C31.5278 24.1835 30.962 23.3523 30.25 22.6562V20.5C30.25 17.6163 27.8837 15.25 25 15.25ZM25 16.75C27.0662 16.75 28.75 18.4337 28.75 20.5V21.5312C27.6438 20.8863 26.3695 20.5 25 20.5C23.6305 20.5 22.3562 20.887 21.25 21.5312V20.5C21.25 18.4337 22.9338 16.75 25 16.75ZM25 22C28.3225 22 31 24.6775 31 28C31 31.3225 28.3225 34 25 34C21.6775 34 19 31.3225 19 28C19 24.6775 21.6775 22 25 22ZM25 26.5C24.6022 26.5 24.2206 26.658 23.9393 26.9393C23.658 27.2206 23.5 27.6022 23.5 28C23.5 28.555 23.8022 29.0297 24.25 29.29V31.75H25.75V29.29C26.1978 29.0297 26.5 28.555 26.5 28C26.5 27.6022 26.342 27.2206 26.0607 26.9393C25.7794 26.658 25.3978 26.5 25 26.5Z" fill="#547593"/>
</svg>
