<svg width="232" height="72" viewBox="0 0 232 72" fill="none" xmlns="http://www.w3.org/2000/svg">
<rect width="232" height="72" rx="8" fill="white"/>
<path d="M93.9779 42.716C93.0539 42.716 92.2439 42.554 91.5479 42.23C90.8519 41.906 90.3059 41.444 89.9099 40.844C89.5259 40.244 89.3279 39.53 89.3159 38.702H91.3319C91.3439 39.374 91.5779 39.944 92.0339 40.412C92.4899 40.88 93.1319 41.114 93.9599 41.114C94.6919 41.114 95.2619 40.94 95.6699 40.592C96.0899 40.232 96.2999 39.776 96.2999 39.224C96.2999 38.78 96.1979 38.42 95.9939 38.144C95.8019 37.868 95.5319 37.64 95.1839 37.46C94.8479 37.28 94.4579 37.118 94.0139 36.974C93.5699 36.83 93.1019 36.674 92.6099 36.506C91.6379 36.182 90.9059 35.762 90.4139 35.246C89.9339 34.73 89.6939 34.052 89.6939 33.212C89.6819 32.504 89.8439 31.886 90.1799 31.358C90.5279 30.83 91.0079 30.422 91.6199 30.134C92.2439 29.834 92.9699 29.684 93.7979 29.684C94.6139 29.684 95.3279 29.834 95.9399 30.134C96.5639 30.434 97.0499 30.854 97.3979 31.394C97.7459 31.922 97.9259 32.54 97.9379 33.248H95.9219C95.9219 32.924 95.8379 32.618 95.6699 32.33C95.5019 32.03 95.2559 31.784 94.9319 31.592C94.6079 31.4 94.2119 31.304 93.7439 31.304C93.1439 31.292 92.6459 31.442 92.2499 31.754C91.8659 32.066 91.6739 32.498 91.6739 33.05C91.6739 33.542 91.8179 33.92 92.1059 34.184C92.3939 34.448 92.7899 34.67 93.2939 34.85C93.7979 35.018 94.3739 35.216 95.0219 35.444C95.6459 35.648 96.2039 35.894 96.6959 36.182C97.1879 36.47 97.5779 36.848 97.8659 37.316C98.1659 37.784 98.3159 38.378 98.3159 39.098C98.3159 39.734 98.1539 40.328 97.8299 40.88C97.5059 41.42 97.0199 41.864 96.3719 42.212C95.7239 42.548 94.9259 42.716 93.9779 42.716ZM104.146 42.716C103.27 42.716 102.49 42.524 101.806 42.14C101.134 41.744 100.606 41.198 100.222 40.502C99.8379 39.806 99.6459 38.996 99.6459 38.072C99.6459 37.136 99.8319 36.314 100.204 35.606C100.588 34.898 101.116 34.346 101.788 33.95C102.472 33.554 103.264 33.356 104.164 33.356C105.04 33.356 105.802 33.554 106.45 33.95C107.098 34.334 107.602 34.85 107.962 35.498C108.322 36.146 108.502 36.86 108.502 37.64C108.502 37.76 108.496 37.892 108.484 38.036C108.484 38.168 108.478 38.318 108.466 38.486H101.518C101.578 39.35 101.86 40.01 102.364 40.466C102.88 40.91 103.474 41.132 104.146 41.132C104.686 41.132 105.136 41.012 105.496 40.772C105.868 40.52 106.144 40.184 106.324 39.764H108.232C107.992 40.604 107.512 41.306 106.792 41.87C106.084 42.434 105.202 42.716 104.146 42.716ZM104.146 34.922C103.51 34.922 102.946 35.114 102.454 35.498C101.962 35.87 101.662 36.434 101.554 37.19H106.594C106.558 36.494 106.312 35.942 105.856 35.534C105.4 35.126 104.83 34.922 104.146 34.922ZM114.298 42.716C113.422 42.716 112.642 42.524 111.958 42.14C111.286 41.744 110.758 41.198 110.374 40.502C109.99 39.806 109.798 38.996 109.798 38.072C109.798 37.136 109.984 36.314 110.356 35.606C110.74 34.898 111.268 34.346 111.94 33.95C112.624 33.554 113.416 33.356 114.316 33.356C115.192 33.356 115.954 33.554 116.602 33.95C117.25 34.334 117.754 34.85 118.114 35.498C118.474 36.146 118.654 36.86 118.654 37.64C118.654 37.76 118.648 37.892 118.636 38.036C118.636 38.168 118.63 38.318 118.618 38.486H111.67C111.73 39.35 112.012 40.01 112.516 40.466C113.032 40.91 113.626 41.132 114.298 41.132C114.838 41.132 115.288 41.012 115.648 40.772C116.02 40.52 116.296 40.184 116.476 39.764H118.384C118.144 40.604 117.664 41.306 116.944 41.87C116.236 42.434 115.354 42.716 114.298 42.716ZM114.298 34.922C113.662 34.922 113.098 35.114 112.606 35.498C112.114 35.87 111.814 36.434 111.706 37.19H116.746C116.71 36.494 116.464 35.942 116.008 35.534C115.552 35.126 114.982 34.922 114.298 34.922ZM123.711 42.5L128.355 29.9H130.443L135.051 42.5H133.035L131.955 39.422H126.807L125.727 42.5H123.711ZM127.347 37.91H131.415L129.381 32.168L127.347 37.91ZM136.376 42.5V29.54H138.284V42.5H136.376ZM140.34 42.5V29.54H142.248V42.5H140.34Z" fill="#102D47"/>
</svg>
