<svg width="50" height="50" viewBox="0 0 50 50" fill="none" xmlns="http://www.w3.org/2000/svg">
<rect width="50" height="50" rx="25" fill="#EDF5FF"/>
<path d="M25 15.25C19.6 15.25 15.25 19.6 15.25 25C15.25 30.4 19.6 34.75 25 34.75C30.4 34.75 34.75 30.4 34.75 25C34.75 23.95 34.609 22.9045 34.234 21.9295L33.016 23.125C33.166 23.725 33.2507 24.325 33.2507 25C33.2507 29.575 29.5757 33.25 25.0007 33.25C20.4257 33.25 16.75 29.575 16.75 25C16.75 20.425 20.425 16.75 25 16.75C27.25 16.75 29.2705 17.6455 30.6955 19.0705L31.75 18.016C30.025 16.291 27.625 15.25 25 15.25ZM33.46 18.46L25 26.9222L21.79 23.7122L20.71 24.79L24.46 28.54L25 29.0545L25.54 28.5392L34.54 19.5392L33.46 18.4592V18.46Z" fill="#547593"/>
</svg>
