<svg width="24" height="24" viewBox="0 0 24 24" fill="none" xmlns="http://www.w3.org/2000/svg">
<path d="M12 2.25C6.6 2.25 2.25 6.6 2.25 12C2.25 17.4 6.6 21.75 12 21.75C17.4 21.75 21.75 17.4 21.75 12C21.75 10.95 21.609 9.9045 21.234 8.9295L20.016 10.125C20.166 10.725 20.2507 11.325 20.2507 12C20.2507 16.575 16.5757 20.25 12.0007 20.25C7.42575 20.25 3.75 16.575 3.75 12C3.75 7.425 7.425 3.75 12 3.75C14.25 3.75 16.2705 4.6455 17.6955 6.0705L18.75 5.016C17.025 3.291 14.625 2.25 12 2.25ZM20.46 5.46L12 13.9222L8.79 10.7122L7.71 11.79L11.46 15.54L12 16.0545L12.54 15.5392L21.54 6.53925L20.46 5.45925V5.46Z" fill="white"/>
</svg>
