<svg width="16" height="21" viewBox="0 0 16 21" fill="none" xmlns="http://www.w3.org/2000/svg">
<path d="M8 0.25C5.11625 0.25 2.75 2.61625 2.75 5.5V7.65625C2.03801 8.35226 1.47223 9.18347 1.08585 10.1011C0.699478 11.0188 0.500297 12.0043 0.5 13C0.5 17.1325 3.8675 20.5 8 20.5C12.1325 20.5 15.5 17.1325 15.5 13C15.4997 12.0043 15.3005 11.0188 14.9141 10.1011C14.5278 9.18347 13.962 8.35226 13.25 7.65625V5.5C13.25 2.61625 10.8837 0.25 8 0.25ZM8 1.75C10.0662 1.75 11.75 3.43375 11.75 5.5V6.53125C10.6438 5.88625 9.3695 5.5 8 5.5C6.6305 5.5 5.35625 5.887 4.25 6.53125V5.5C4.25 3.43375 5.93375 1.75 8 1.75ZM8 7C11.3225 7 14 9.6775 14 13C14 16.3225 11.3225 19 8 19C4.6775 19 2 16.3225 2 13C2 9.6775 4.6775 7 8 7ZM8 11.5C7.60218 11.5 7.22064 11.658 6.93934 11.9393C6.65804 12.2206 6.5 12.6022 6.5 13C6.5 13.555 6.80225 14.0297 7.25 14.29V16.75H8.75V14.29C9.19775 14.0297 9.5 13.555 9.5 13C9.5 12.6022 9.34196 12.2206 9.06066 11.9393C8.77936 11.658 8.39782 11.5 8 11.5Z" fill="#547593"/>
</svg>
