<svg width="50" height="50" viewBox="0 0 50 50" fill="none" xmlns="http://www.w3.org/2000/svg">
<rect width="50" height="50" rx="25" fill="#EDF5FF"/>
<path d="M16.75 17.5C15.5163 17.5 14.5 18.5163 14.5 19.75V30.25C14.5 31.4838 15.5163 32.5 16.75 32.5H33.25C34.4837 32.5 35.5 31.4838 35.5 30.25V19.75C35.5 18.5163 34.4837 17.5 33.25 17.5H16.75ZM16.75 19H33.25C33.6737 19 34 19.3262 34 19.75V30.25C34 30.6737 33.6737 31 33.25 31H16.75C16.3262 31 16 30.6737 16 30.25V19.75C16 19.3262 16.3262 19 16.75 19ZM27.5545 22.2812C26.11 22.2812 25.3517 22.9938 25.3517 23.8983C25.3517 25.5355 27.2717 25.3082 27.2717 26.1483C27.2717 26.293 27.1517 26.6185 26.3568 26.6185C25.5618 26.6185 25.0443 26.3373 25.0443 26.3373L24.8117 27.4172C24.8117 27.4172 25.303 27.721 26.2892 27.721C27.2717 27.721 28.6547 26.965 28.6547 25.8685C28.6547 24.5515 26.7325 24.4645 26.7325 23.8773C26.7325 23.5773 26.9875 23.3372 27.67 23.3372C28.1155 23.3372 28.6075 23.6898 28.6075 23.6898L28.843 22.5422C28.843 22.5422 28.1905 22.2835 27.553 22.2835L27.5545 22.2812ZM21.391 22.375L20.125 26.0785C20.125 26.0785 20.062 25.7575 20.0312 25.5625C19.315 23.9575 18.1562 23.359 18.1562 23.359L19.2587 27.5545H20.7587L22.8663 22.375H21.3925H21.391ZM23.4062 22.375L22.5858 27.5545H23.9703L24.79 22.375H23.4062ZM30.8597 22.375L28.6097 27.5545H29.9688L30.25 26.8285H31.9847L32.125 27.5545H33.367L32.3125 22.375H30.8597ZM16.6322 22.3975C16.6322 22.3975 19.33 23.2262 19.9608 25.258L19.4935 22.9142C19.4935 22.9142 19.2873 22.3968 18.7435 22.3968H16.633L16.6322 22.3975ZM31.375 23.875L31.7725 25.8205H30.6475L31.375 23.875Z" fill="#547593"/>
</svg>
