<svg width="50" height="50" viewBox="0 0 50 50" fill="none" xmlns="http://www.w3.org/2000/svg">
<rect width="50" height="50" rx="25" fill="#EDF5FF"/>
<path d="M25 16.75C22.1095 16.75 19.75 19.1095 19.75 22C19.75 23.8075 20.6725 25.414 22.0705 26.3597C19.3952 27.5072 17.5 30.16 17.5 33.25H19C19 29.9275 21.6775 27.25 25 27.25C28.3225 27.25 31 29.9275 31 33.25H32.5C32.5 30.16 30.6047 27.5065 27.9295 26.359C28.6432 25.8775 29.2279 25.2284 29.6325 24.4684C30.037 23.7085 30.2491 22.8609 30.25 22C30.25 19.1095 27.8905 16.75 25 16.75ZM25 18.25C27.0798 18.25 28.75 19.9202 28.75 22C28.75 24.0798 27.0798 25.75 25 25.75C22.9202 25.75 21.25 24.0798 21.25 22C21.25 19.9202 22.9202 18.25 25 18.25Z" fill="#547593"/>
</svg>
