<svg width="24" height="24" viewBox="0 0 24 24" fill="none" xmlns="http://www.w3.org/2000/svg">
<path d="M3.75 4.5C2.51625 4.5 1.5 5.51625 1.5 6.75V17.25C1.5 18.4838 2.51625 19.5 3.75 19.5H20.25C21.4837 19.5 22.5 18.4838 22.5 17.25V6.75C22.5 5.51625 21.4837 4.5 20.25 4.5H3.75ZM3.75 6H20.25C20.6737 6 21 6.32625 21 6.75V17.25C21 17.6737 20.6737 18 20.25 18H3.75C3.32625 18 3 17.6737 3 17.25V6.75C3 6.32625 3.32625 6 3.75 6ZM14.5545 9.28125C13.11 9.28125 12.3517 9.99375 12.3517 10.8983C12.3517 12.5355 14.2717 12.3082 14.2717 13.1483C14.2717 13.293 14.1517 13.6185 13.3568 13.6185C12.5618 13.6185 12.0443 13.3373 12.0443 13.3373L11.8117 14.4172C11.8117 14.4172 12.303 14.721 13.2892 14.721C14.2717 14.721 15.6547 13.965 15.6547 12.8685C15.6547 11.5515 13.7325 11.4645 13.7325 10.8773C13.7325 10.5773 13.9875 10.3372 14.67 10.3372C15.1155 10.3372 15.6075 10.6898 15.6075 10.6898L15.843 9.54225C15.843 9.54225 15.1905 9.2835 14.553 9.2835L14.5545 9.28125ZM8.391 9.375L7.125 13.0785C7.125 13.0785 7.062 12.7575 7.03125 12.5625C6.315 10.9575 5.15625 10.359 5.15625 10.359L6.25875 14.5545H7.75875L9.86625 9.375H8.3925H8.391ZM10.4062 9.375L9.58575 14.5545H10.9703L11.79 9.375H10.4062ZM17.8597 9.375L15.6097 14.5545H16.9688L17.25 13.8285H18.9847L19.125 14.5545H20.367L19.3125 9.375H17.8597ZM3.63225 9.3975C3.63225 9.3975 6.33 10.2262 6.96075 12.258L6.4935 9.91425C6.4935 9.91425 6.28725 9.39675 5.7435 9.39675H3.633L3.63225 9.3975ZM18.375 10.875L18.7725 12.8205H17.6475L18.375 10.875Z" fill="#547593"/>
</svg>
